<svg width="16" height="16" viewBox="0 0 16 16" fill="none" xmlns="http://www.w3.org/2000/svg">
<path d="M8.00033 15.3327C12.0437 15.3327 15.3337 12.043 15.3337 7.99935C15.3337 7.30141 15.2362 6.61361 15.0433 5.9549C14.9483 5.63099 14.6101 5.44495 14.2853 5.53998C13.961 5.63472 13.7756 5.97415 13.8703 6.29805C14.0301 6.84531 14.1114 7.41793 14.1114 7.99935C14.1114 11.369 11.3699 14.1105 8.00033 14.1105C4.63071 14.1105 1.88921 11.369 1.88921 7.99935C1.88921 4.62973 4.63071 1.88824 8.00033 1.88824C9.22493 1.88824 10.4031 2.24631 11.4075 2.92352C11.6871 3.11225 12.0673 3.0381 12.2557 2.7585C12.4443 2.47861 12.3708 2.09875 12.0909 1.91017C10.8839 1.0963 9.46947 0.666016 8.00033 0.666016C3.95694 0.666016 0.666992 3.95566 0.666992 7.99935C0.666992 12.043 3.95694 15.3327 8.00033 15.3327Z" fill="#FF3F3A"/>
<path d="M14.8622 1.52787L8.0002 8.38953L5.80489 6.19454C5.54447 5.93429 5.1226 5.93429 4.86218 6.19454C4.60193 6.45496 4.60193 6.87683 4.86218 7.13725L7.52885 9.80391C7.65922 9.93428 7.82947 9.99923 8.0002 9.99923C8.17094 9.99923 8.34119 9.93428 8.47156 9.80391L15.8049 2.47058C16.0651 2.21016 16.0651 1.78829 15.8049 1.52787C15.5445 1.26762 15.1226 1.26762 14.8622 1.52787Z" fill="#FF3F3A"/>
</svg>
